<svg xmlns="http://www.w3.org/2000/svg" viewBox="0 0 200 112.5" role="img" aria-label="Cover-Vorlage Hell und klar"><title>Cover-Vorlage Hell und klar</title><defs><path id="s1" fill="none" d="M 62.20 60.00 L 62.22 60.14 L 62.23 60.28 L 62.23 60.43 L 62.22 60.57 L 62.21 60.72 L 62.18 60.86 L 62.15 61.01 L 62.10 61.15 L 62.04 61.30 L 61.98 61.44 L 61.91 61.58 L 61.82 61.71 L 61.73 61.84 L 61.63 61.97 L 61.52 62.09 L 61.40 62.20 L 61.27 62.31 L 61.14 62.41 L 60.99 62.51 L 60.84 62.59 L 60.68 62.67 L 60.52 62.73 L 60.35 62.79 L 60.18 62.84 L 60.00 62.87 L 59.82 62.90 L 59.63 62.91 L 59.44 62.91 L 59.25 62.90 L 59.06 62.88 L 58.87 62.85 L 58.68 62.80 L 58.49 62.74 L 58.31 62.67 L 58.12 62.59 L 57.94 62.49 L 57.76 62.38 L 57.59 62.26 L 57.43 62.13 L 57.27 61.98 L 57.12 61.83 L 56.98 61.66 L 56.85 61.48 L 56.73 61.30 L 56.62 61.10 L 56.52 60.89 L 56.43 60.68 L 56.36 60.46 L 56.29 60.23 L 56.25 60.00 L 56.21 59.76 L 56.20 59.52 L 56.19 59.27 L 56.21 59.03 L 56.23 58.78 L 56.28 58.53 L 56.34 58.28 L 56.42 58.03 L 56.51 57.79 L 56.62 57.55 L 56.75 57.31 L 56.89 57.08 L 57.05 56.86 L 57.22 56.64 L 57.41 56.44 L 57.61 56.24 L 57.83 56.06 L 58.06 55.88 L 58.31 55.73 L 58.56 55.58 L 58.83 55.45 L 59.11 55.34 L 59.40 55.24 L 59.70 55.16 L 60.00 55.10 L 60.31 55.06 L 60.63 55.03 L 60.95 55.03 L 61.27 55.05 L 61.60 55.08 L 61.92 55.14 L 62.25 55.22 L 62.57 55.32 L 62.89 55.44 L 63.21 55.59 L 63.51 55.75 L 63.81 55.94 L 64.11 56.14 L 64.39 56.37 L 64.65 56.62 L 64.91 56.88 L 65.15 57.17 L 65.38 57.47 L 65.58 57.79 L 65.77 58.12 L 65.94 58.47 L 66.09 58.84 L 66.22 59.21 L 66.32 59.60 L 66.40 60.00 L 66.46 60.41 L 66.49 60.82 L 66.49 61.24 L 66.47 61.66 L 66.42 62.09 L 66.35 62.51 L 66.24 62.94 L 66.11 63.36 L 65.95 63.78 L 65.76 64.19 L 65.55 64.59 L 65.31 64.98 L 65.04 65.36 L 64.74 65.73 L 64.42 66.08 L 64.07 66.41 L 63.70 66.73 L 63.30 67.02 L 62.89 67.29 L 62.45 67.54 L 61.99 67.76 L 61.52 67.95 L 61.03 68.12 L 60.52 68.26 L 60.00 68.36 L 59.47 68.43 L 58.93 68.47 L 58.38 68.48 L 57.83 68.45 L 57.27 68.39 L 56.72 68.29 L 56.16 68.15 L 55.61 67.98 L 55.07 67.77 L 54.53 67.53 L 54.01 67.25 L 53.49 66.93 L 53.00 66.58 L 52.52 66.19 L 52.06 65.77 L 51.62 65.32 L 51.21 64.83 L 50.83 64.31 L 50.48 63.77 L 50.15 63.20 L 49.86 62.60 L 49.61 61.98 L 49.39 61.34 L 49.22 60.68 L 49.08 60.00 L 48.98 59.31 L 48.93 58.60 L 48.92 57.89 L 48.96 57.17 L 49.04 56.44 L 49.17 55.71 L 49.35 54.99 L 49.58 54.27 L 49.85 53.56 L 50.17 52.86 L 50.54 52.17 L 50.95 51.50 L 51.41 50.85 L 51.92 50.23 L 52.47 49.63 L 53.06 49.06 L 53.69 48.52 L 54.36 48.02 L 55.08 47.56 L 55.82 47.14 L 56.60 46.76 L 57.41 46.43 L 58.25 46.15 L 59.11 45.92 L 60.00 45.74 L 60.91 45.61 L 61.83 45.54 L 62.76 45.53 L 63.70 45.58 L 64.65 45.69 L 65.60 45.86 L 66.54 46.09 L 67.48 46.39 L 68.41 46.74 L 69.33 47.16 L 70.23 47.64 L 71.10 48.18 L 71.95 48.78 L 72.76 49.44 L 73.54 50.16 L 74.29 50.93 L 74.99 51.76 L 75.64 52.64 L 76.25 53.57 L 76.80 54.54 L 77.29 55.56 L 77.72 56.62 L 78.09 57.71 L 78.40 58.84 L 78.63 60.00 L 78.79 61.18 L 78.88 62.39 L 78.90 63.60 L 78.83 64.84 L 78.69 66.07 L 78.47 67.31 L 78.17 68.55 L 77.78 69.78 L 77.32 70.99 L 76.77 72.18 L 76.14 73.36 L 75.44 74.50 L 74.65 75.60 L 73.79 76.67 L 72.85 77.69 L 71.84 78.66 L 70.76 79.58 L 69.61 80.43 L 68.40 81.22 L 67.13 81.94 L 65.80 82.58 L 64.42 83.15 L 62.99 83.63 L 61.51 84.03 L 60.00 84.33 L 58.46 84.54 L 56.88 84.66 L 55.29 84.68 L 53.68 84.60 L 52.07 84.41 L 50.45 84.12 L 48.84 83.73 L 47.23 83.22 L 45.65 82.62 L 44.09 81.90 L 42.56 81.09 L 41.07 80.16 L 39.62 79.14 L 38.23 78.01 L 36.89 76.79 L 35.63 75.47 L 34.43 74.06 L 33.32 72.56 L 32.29 70.97 L 31.35 69.31 L 30.51 67.57 L 29.77 65.77 L 29.14 63.90 L 28.62 61.97 L 28.22 60.00 L 27.94 57.98 L 27.79 55.93 L 27.77 53.85 L 27.88 51.75 L 28.12 49.64 L 28.50 47.53 L 29.01 45.42 L 29.67 43.32 L 30.46 41.25 L 31.39 39.21"/><path id="s2" fill="none" d="M 57.80 60.00 L 57.78 59.86 L 57.77 59.72 L 57.77 59.57 L 57.78 59.43 L 57.79 59.28 L 57.82 59.14 L 57.85 58.99 L 57.90 58.85 L 57.96 58.70 L 58.02 58.56 L 58.09 58.42 L 58.18 58.29 L 58.27 58.16 L 58.37 58.03 L 58.48 57.91 L 58.60 57.80 L 58.73 57.69 L 58.86 57.59 L 59.01 57.49 L 59.16 57.41 L 59.32 57.33 L 59.48 57.27 L 59.65 57.21 L 59.82 57.16 L 60.00 57.13 L 60.18 57.10 L 60.37 57.09 L 60.56 57.09 L 60.75 57.10 L 60.94 57.12 L 61.13 57.15 L 61.32 57.20 L 61.51 57.26 L 61.69 57.33 L 61.88 57.41 L 62.06 57.51 L 62.24 57.62 L 62.41 57.74 L 62.57 57.87 L 62.73 58.02 L 62.88 58.17 L 63.02 58.34 L 63.15 58.52 L 63.27 58.70 L 63.38 58.90 L 63.48 59.11 L 63.57 59.32 L 63.64 59.54 L 63.71 59.77 L 63.75 60.00 L 63.79 60.24 L 63.80 60.48 L 63.81 60.73 L 63.79 60.97 L 63.77 61.22 L 63.72 61.47 L 63.66 61.72 L 63.58 61.97 L 63.49 62.21 L 63.38 62.45 L 63.25 62.69 L 63.11 62.92 L 62.95 63.14 L 62.78 63.36 L 62.59 63.56 L 62.39 63.76 L 62.17 63.94 L 61.94 64.12 L 61.69 64.27 L 61.44 64.42 L 61.17 64.55 L 60.89 64.66 L 60.60 64.76 L 60.30 64.84 L 60.00 64.90 L 59.69 64.94 L 59.37 64.97 L 59.05 64.97 L 58.73 64.95 L 58.40 64.92 L 58.08 64.86 L 57.75 64.78 L 57.43 64.68 L 57.11 64.56 L 56.79 64.41 L 56.49 64.25 L 56.19 64.06 L 55.89 63.86 L 55.61 63.63 L 55.35 63.38 L 55.09 63.12 L 54.85 62.83 L 54.62 62.53 L 54.42 62.21 L 54.23 61.88 L 54.06 61.53 L 53.91 61.16 L 53.78 60.79 L 53.68 60.40 L 53.60 60.00 L 53.54 59.59 L 53.51 59.18 L 53.51 58.76 L 53.53 58.34 L 53.58 57.91 L 53.65 57.49 L 53.76 57.06 L 53.89 56.64 L 54.05 56.22 L 54.24 55.81 L 54.45 55.41 L 54.69 55.02 L 54.96 54.64 L 55.26 54.27 L 55.58 53.92 L 55.93 53.59 L 56.30 53.27 L 56.70 52.98 L 57.11 52.71 L 57.55 52.46 L 58.01 52.24 L 58.48 52.05 L 58.97 51.88 L 59.48 51.74 L 60.00 51.64 L 60.53 51.57 L 61.07 51.53 L 61.62 51.52 L 62.17 51.55 L 62.73 51.61 L 63.28 51.71 L 63.84 51.85 L 64.39 52.02 L 64.93 52.23 L 65.47 52.47 L 65.99 52.75 L 66.51 53.07 L 67.00 53.42 L 67.48 53.81 L 67.94 54.23 L 68.38 54.68 L 68.79 55.17 L 69.17 55.69 L 69.52 56.23 L 69.85 56.80 L 70.14 57.40 L 70.39 58.02 L 70.61 58.66 L 70.78 59.32 L 70.92 60.00 L 71.02 60.69 L 71.07 61.40 L 71.08 62.11 L 71.04 62.83 L 70.96 63.56 L 70.83 64.29 L 70.65 65.01 L 70.42 65.73 L 70.15 66.44 L 69.83 67.14 L 69.46 67.83 L 69.05 68.50 L 68.59 69.15 L 68.08 69.77 L 67.53 70.37 L 66.94 70.94 L 66.31 71.48 L 65.64 71.98 L 64.92 72.44 L 64.18 72.86 L 63.40 73.24 L 62.59 73.57 L 61.75 73.85 L 60.89 74.08 L 60.00 74.26 L 59.09 74.39 L 58.17 74.46 L 57.24 74.47 L 56.30 74.42 L 55.35 74.31 L 54.40 74.14 L 53.46 73.91 L 52.52 73.61 L 51.59 73.26 L 50.67 72.84 L 49.77 72.36 L 48.90 71.82 L 48.05 71.22 L 47.24 70.56 L 46.46 69.84 L 45.71 69.07 L 45.01 68.24 L 44.36 67.36 L 43.75 66.43 L 43.20 65.46 L 42.71 64.44 L 42.28 63.38 L 41.91 62.29 L 41.60 61.16 L 41.37 60.00 L 41.21 58.82 L 41.12 57.61 L 41.10 56.40 L 41.17 55.16 L 41.31 53.93 L 41.53 52.69 L 41.83 51.45 L 42.22 50.22 L 42.68 49.01 L 43.23 47.82 L 43.86 46.64 L 44.56 45.50 L 45.35 44.40 L 46.21 43.33 L 47.15 42.31 L 48.16 41.34 L 49.24 40.42 L 50.39 39.57 L 51.60 38.78 L 52.87 38.06 L 54.20 37.42 L 55.58 36.85 L 57.01 36.37 L 58.49 35.97 L 60.00 35.67 L 61.54 35.46 L 63.12 35.34 L 64.71 35.32 L 66.32 35.40 L 67.93 35.59 L 69.55 35.88 L 71.16 36.27 L 72.77 36.78 L 74.35 37.38 L 75.91 38.10 L 77.44 38.91 L 78.93 39.84 L 80.38 40.86 L 81.77 41.99 L 83.11 43.21 L 84.37 44.53 L 85.57 45.94 L 86.68 47.44 L 87.71 49.03 L 88.65 50.69 L 89.49 52.43 L 90.23 54.23 L 90.86 56.10 L 91.38 58.03 L 91.78 60.00 L 92.06 62.02 L 92.21 64.07 L 92.23 66.15 L 92.12 68.25 L 91.88 70.36 L 91.50 72.47 L 90.99 74.58 L 90.33 76.68 L 89.54 78.75 L 88.61 80.79"/><clipPath id="c"><rect width="200" height="112.5"/></clipPath></defs><g clip-path="url(#c)"><rect width="200" height="112.5" fill="#FFFFFF"/><use href="#s1" transform="translate(-3.00 -73.00) scale(2.800)" stroke="#C3EDF2" stroke-width="1.4" stroke-linecap="round"/><use href="#s1" transform="translate(-11.00 -1.00) scale(0.950)" stroke="#1B5879" stroke-width="3.16" stroke-linecap="round"/><use href="#s2" transform="translate(-11.00 -1.00) scale(0.950)" stroke="#6B855D" stroke-width="3.16" stroke-linecap="round"/></g></svg>
